<svg id="Capa_1" enable-background="new 0 0 512 512" height="512" viewBox="0 0 512 512" width="512" xmlns="http://www.w3.org/2000/svg"><path id="XMLID_514_" d="m420.9 474.116-83.429-251.792 20.412-98.708c4.783-23.133-4.337-45.82-23.802-59.207-5.155-3.546-10.662-6.17-16.339-7.891v-40.968c0-8.588-6.962-15.55-15.55-15.55s-15.55 6.962-15.55 15.55v40.526c-5.652 1.538-11.165 3.963-16.365 7.295l-14.277 9.149-14.278-9.15c-5.2-3.332-10.712-5.757-16.364-7.295v-40.525c0-8.588-6.962-15.55-15.55-15.55s-15.55 6.962-15.55 15.55v40.969c-5.678 1.72-11.185 4.345-16.34 7.891-19.465 13.386-28.585 36.073-23.801 59.207l20.412 98.708-83.429 251.791c-3.505 10.576-.609 21.855 7.557 29.434 8.165 7.578 19.626 9.626 29.914 5.347l14.313-5.957c21.429-8.918 46.014-8.919 67.444 0 14.514 6.04 30.09 9.06 45.671 9.06 15.578-.001 31.161-3.021 45.672-9.06 21.43-8.919 46.014-8.919 67.443 0l14.314 5.957c10.289 4.281 21.748 2.23 29.914-5.347 8.167-7.58 11.063-18.858 7.558-29.434zm-225.36-384.082c9.107-6.261 20.097-6.442 29.403-.478l22.668 14.525c5.112 3.276 11.666 3.276 16.779 0l22.668-14.525c9.307-5.964 20.299-5.784 29.403.478 9.106 6.262 13.206 16.462 10.968 27.284l-18.671 90.289h-37.212c-.052-8.543-6.99-15.454-15.545-15.454s-15.493 6.911-15.545 15.454h-37.212l-18.671-90.289c-2.24-10.822 1.861-21.022 10.967-27.284zm185.525 384.194c-29.023-12.079-62.317-12.078-91.342 0-21.434 8.918-46.016 8.918-67.445 0-14.513-6.04-30.092-9.06-45.671-9.06-15.58 0-31.159 3.02-45.672 9.06l-8.247 3.433 79.127-238.812h38.659c.253 8.367 7.098 15.076 15.526 15.076s15.273-6.709 15.526-15.076h38.659l79.128 238.812z"/></svg>